<svg width="48" height="48" viewBox="0 0 48 48" fill="none" xmlns="http://www.w3.org/2000/svg">
<g clip-path="url(#clip0_1795_13938)">
<rect width="48" height="48" fill="#E73D31"/>
<path d="M26.9453 24.5391V42H23.7578L16.1758 31.0195H16.0234V42H12.3438V24.5391H15.5781L23.1133 35.5195H23.2656V24.5391H26.9453ZM35.6641 42.2461C34.2578 42.2461 33.0312 42.0312 31.9844 41.6016C30.9453 41.1719 30.1328 40.5312 29.5469 39.6797C28.9688 38.8281 28.6641 37.7734 28.6328 36.5156H32.1953C32.2422 37.0938 32.4141 37.582 32.7109 37.9805C33.0078 38.3711 33.4062 38.6641 33.9062 38.8594C34.4062 39.0547 34.9805 39.1523 35.6289 39.1523C36.2539 39.1523 36.7969 39.0625 37.2578 38.8828C37.7266 38.7031 38.0859 38.4531 38.3359 38.1328C38.5938 37.8047 38.7227 37.4258 38.7227 36.9961C38.7227 36.6055 38.6055 36.2773 38.3711 36.0117C38.1445 35.7461 37.8086 35.5195 37.3633 35.332C36.9258 35.1445 36.3906 34.9766 35.7578 34.8281L33.8477 34.3594C32.3789 34.0078 31.2188 33.4492 30.3672 32.6836C29.5156 31.9102 29.0898 30.8789 29.0898 29.5898C29.0898 28.5352 29.375 27.6133 29.9453 26.8242C30.5234 26.0273 31.3086 25.4102 32.3008 24.9727C33.3008 24.5273 34.4375 24.3047 35.7109 24.3047C37.0078 24.3047 38.1367 24.5273 39.0977 24.9727C40.0664 25.418 40.8203 26.0352 41.3594 26.8242C41.9062 27.6133 42.1875 28.5234 42.2031 29.5547H38.6523C38.5898 28.875 38.2969 28.3438 37.7734 27.9609C37.2578 27.5781 36.5586 27.3867 35.6758 27.3867C35.082 27.3867 34.5742 27.4727 34.1523 27.6445C33.7383 27.8086 33.4219 28.0391 33.2031 28.3359C32.9844 28.6328 32.875 28.9727 32.875 29.3555C32.875 29.7617 33 30.1055 33.25 30.3867C33.5 30.6602 33.832 30.8867 34.2461 31.0664C34.668 31.2383 35.1289 31.3828 35.6289 31.5L37.1875 31.8867C37.9453 32.0586 38.6445 32.2891 39.2852 32.5781C39.9258 32.8594 40.4805 33.207 40.9492 33.6211C41.4258 34.0352 41.793 34.5234 42.0508 35.0859C42.3086 35.6406 42.4375 36.2812 42.4375 37.0078C42.4375 38.0781 42.168 39.0078 41.6289 39.7969C41.0977 40.5781 40.3281 41.1836 39.3203 41.6133C38.3125 42.0352 37.0938 42.2461 35.6641 42.2461Z" fill="white"/>
</g>
<defs>
<clipPath id="clip0_1795_13938">
<rect width="48" height="48" fill="white"/>
</clipPath>
</defs>
</svg>
